# xmcd
#
# Track frame offsets:
#	150
#	4860
#	15673
#	24559
#	37864
#	56406
#	63746
#	74905
#	88031
#	100925
#	119301
#	130510
#
# Disc length: 1896 seconds
#
# Revision: 1
# Processed by: cddbd v1.5.2PL0 Copyright (c) Steve Scherf et al.
# Submitted via: audiograbber 1.83.01
#
DISCID=9c07660c
DTITLE=The Hanson Family Singers - A Song In My Heart
DYEAR=2005
DGENRE=Country
TTITLE0=I Feel a Song Comin' On
TTITLE1=Ricochet Yodel
TTITLE2=God Bless America
TTITLE3=The Man in the Moon is a Yodeler
TTITLE4=This is My Song
TTITLE5=Hey, Look Me Over
TTITLE6=Battle Hymn of the Republic
TTITLE7=Cowboy Yodel
TTITLE8=Swing Low, Sweet Chariot
TTITLE9=Please Daddy, Please
TTITLE10=Sweet and Low
TTITLE11=He Taught Me to Yodel
EXTD=www.hansonfamilysingers.com\nHFS04-02
EXTT0=
EXTT1=
EXTT2=
EXTT3=
EXTT4=
EXTT5=
EXTT6=
EXTT7=
EXTT8=
EXTT9=
EXTT10=
EXTT11=
PLAYORDER=
